<svg id="Layer_1" data-name="Layer 1" xmlns="http://www.w3.org/2000/svg" viewBox="0 0 842.98 416.87"><defs><style>.cls-1{fill:#7656a4;}</style></defs><title>HT</title><path class="cls-1" d="M647.21,425.6h120l-55.66,264s-17.39,40.07-76.08,32.17c-53.11-7.15-38.81-46.47-38.81-46.47Z" transform="translate(-78.96 -305.98)"/><path class="cls-1" d="M504.23,371.47l90.68-48s21.66-14.81,53.32-14.81H885.68s50.74,3.3,32.17,56.68c-12.25,35.23-53.11,37.79-53.11,37.79l-251.8.89a114.94,114.94,0,0,0-51.13,14.36c-25.28,14.36-82.34,46.73-82.34,46.73l-45.7,218.36s-6.77,39.38-64,39.38c-51.51,0-46.72-41.94-46.72-41.94l22.79-116.42s4.21-17.62-11.11-17.62H215.79L189.17,681.68s-7.4,41.17-65.11,41.17c-52.59,0-44.68-44.23-44.68-44.23l32.05-155.11s6.51-42.13,54.57-42.13,128.62-3.7,128.62-3.7,23.23-.25,63.32-24S504.23,371.47,504.23,371.47Z" transform="translate(-78.96 -305.98)"/><path class="cls-1" d="M379.13,413.6l122.55-67.41S513.55,306,451.89,306c-50.74,0-59.74,50.55-59.74,50.55Z" transform="translate(-78.96 -305.98)"/><path class="cls-1" d="M237,456.11l-110.3,2.29,23.75-118.72s10.72-31,60.13-31,53.61,18.13,45.7,55.91S237,456.11,237,456.11Z" transform="translate(-78.96 -305.98)"/></svg>